<?xml version="1.0" encoding="utf-8"?>
<!-- Generator: Adobe Illustrator 28.1.0, SVG Export Plug-In . SVG Version: 6.00 Build 0)  -->
<svg version="1.1" xmlns="http://www.w3.org/2000/svg" xmlns:xlink="http://www.w3.org/1999/xlink" x="0px" y="0px"
	 viewBox="0 0 7985.13 2321.28" style="enable-background:new 0 0 7985.13 2321.28;" xml:space="preserve">
<style type="text/css">
	.st0{fill:#AF75E8;}
	.st1{fill:#9DD7F1;}
	.st2{fill:#C1E5FA;}
	.st3{fill:#7CCDED;}
	.st4{fill:#1DACE4;}
	.st5{fill:#42C0EB;}
	.st6{fill:#1DADE4;}
	.st7{fill:#34AFE5;}
	.st8{fill:#86D0F0;}
	.st9{fill:#42BFEC;}
	.st10{fill:#239EDA;}
	.st11{fill:#51BEEE;}
</style>
<g id="Layer_2">
	<circle class="st0" cx="4268.18" cy="1126.37" r="1045.15"/>
</g>
<g id="_x2014_ÎÓÈ_x5F_1">
	<g>
		<path class="st1" d="M4434.17,999.41c-2.44-27.17-9.63-52.72-24.04-75.8l-180.89-255.16c-11.41-16.1-26.5-29.42-44.75-38.76
			c-40.76-20.86-109.53-24.23-175.03-31.39c-12.35-1.35-22.82-7.08-29.27-16.18l-18.57-26.19l-214.86,152.32l18.57,26.19
			c6.46,9.11,8.4,20.88,5.58,32.98c-14.93,64.18-34.51,130.19-28.32,175.55c2.77,20.31,10.35,38.96,21.76,55.06l180.89,255.16
			c17.01,21.24,38.74,36.48,63.57,47.77c23.11,10.51,42.92,25.57,57.62,44.88c5.25,6.89,10.77,14.64,16.61,23.19
			c1.03,1.51,2.79,2.44,4.83,2.61c6.47,0.54,12.24,3.4,15.86,8.51c3.92,5.53,4.51,12.58,2.3,19.35c-0.64,1.97-0.48,3.92,0.49,5.46
			c15.84,25.02,33.69,54.38,54.04,87.68c1,1.63,2.8,2.63,4.92,2.83c6.31,0.62,11.92,3.47,15.47,8.47
			c4.09,5.77,4.57,13.18,2.02,20.21c-0.73,2.01-0.62,4.04,0.37,5.64c16.35,26.56,34.15,55.16,53.6,85.64
			c1.09,1.71,3.08,2.69,5.38,2.76c7.01,0.23,13.34,3.11,17.21,8.57c4.2,5.93,4.58,13.6,1.78,20.8c-0.85,2.19-0.81,4.43,0.31,6.15
			c17.41,26.74,36.02,54.74,55.96,83.9c1.08,1.57,2.93,2.49,5.07,2.61c6.78,0.36,12.87,3.23,16.63,8.54
			c3.86,5.44,4.49,12.36,2.4,19.03c-0.64,2.05-0.44,4.08,0.65,5.64c5.52,7.9,11.12,15.87,16.83,23.92
			c28.93,39.02,60.77,63.33,95.45,73.2c17.73,5.04,38.85,0.62,56.11-11.62l283.83-201.21c17.26-12.24,28.43-30.71,29.54-49.1
			c2.17-36-10.23-74.09-37.47-114.3c-5.71-8.05-11.37-15.98-17-23.8c-1.11-1.54-2.96-2.41-5.11-2.48
			c-6.99-0.24-13.3-3.12-17.16-8.56c-3.76-5.31-4.45-12.01-2.55-18.52c0.6-2.06,0.35-4.11-0.78-5.65
			c-20.92-28.47-41.18-55.3-60.65-80.58c-1.25-1.63-3.35-2.41-5.7-2.33c-7.72,0.26-14.84-2.63-19.04-8.56
			c-3.87-5.46-4.49-12.39-2.39-19.07c0.69-2.19,0.43-4.39-0.83-5.99c-22.33-28.45-43.42-54.71-63.07-78.93
			c-1.18-1.46-3.06-2.24-5.2-2.22c-7.48,0.08-14.31-2.83-18.4-8.6c-3.55-5-4.38-11.24-2.87-17.4c0.51-2.07,0.17-4.1-1.04-5.58
			c-24.69-30.23-46.49-56.79-64.85-80.01c-1.13-1.43-2.92-2.23-4.99-2.27c-7.12-0.15-13.58-3.04-17.5-8.57
			c-3.62-5.11-4.41-11.51-2.78-17.79c0.52-1.98,0.23-3.94-0.86-5.42c-6.14-8.33-11.62-16.11-16.38-23.35
			C4444.09,1048.37,4436.44,1024.7,4434.17,999.41z"/>
		<path class="st2" d="M4509.32,1831.74c-34.69-9.87-66.52-34.18-95.45-73.2c-5.71-8.05-11.31-16.02-16.83-23.92
			c-1.09-1.56-1.29-3.59-0.65-5.64c2.09-6.67,1.46-13.58-2.4-19.03c-3.76-5.31-9.86-8.18-16.63-8.54c-2.14-0.11-3.99-1.03-5.07-2.61
			c-19.93-29.16-38.55-57.16-55.96-83.9c-1.12-1.72-1.16-3.96-0.31-6.15c2.8-7.2,2.43-14.87-1.78-20.8
			c-3.87-5.46-10.2-8.34-17.21-8.57c-2.3-0.07-4.28-1.05-5.38-2.76c-19.45-30.49-37.25-59.09-53.6-85.64
			c-0.98-1.6-1.1-3.63-0.37-5.64c2.55-7.03,2.07-14.44-2.02-20.21c-3.55-5-9.16-7.85-15.47-8.47c-2.12-0.21-3.92-1.2-4.92-2.83
			c-20.35-33.3-38.2-62.66-54.04-87.68c-0.98-1.54-1.13-3.49-0.49-5.46c2.21-6.77,1.63-13.82-2.3-19.35
			c-3.62-5.11-9.4-7.97-15.86-8.51c-2.04-0.17-3.8-1.09-4.83-2.61c-5.83-8.55-11.36-16.3-16.61-23.19
			c-14.7-19.31-34.5-34.36-57.62-44.88c-24.83-11.3-46.56-26.54-63.57-47.77l-180.89-255.16c-11.41-16.1-18.99-34.74-21.76-55.06
			c-6.19-45.36,13.39-111.37,28.32-175.55c2.81-12.1-2.3-21.62-8.75-30.73l-18.57-26.19l-19.04,13.5l18.57,26.19
			c6.46,9.11,8.4,20.88,5.58,32.98c-14.93,64.18-34.51,130.19-28.32,175.55c2.77,20.31,10.35,38.96,21.76,55.06l180.89,255.16
			c17.01,21.24,38.74,36.48,63.57,47.77c23.11,10.51,42.92,25.57,57.62,44.88c5.25,6.89,10.77,14.64,16.61,23.19
			c1.03,1.51,2.79,2.44,4.83,2.61c6.47,0.54,12.24,3.4,15.86,8.51c3.92,5.53,4.51,12.58,2.3,19.35c-0.64,1.97-0.48,3.92,0.49,5.46
			c15.84,25.02,33.69,54.38,54.04,87.68c1,1.63,2.8,2.63,4.92,2.83c6.31,0.62,11.92,3.47,15.47,8.47
			c4.09,5.76,4.57,13.18,2.02,20.21c-0.73,2.01-0.61,4.04,0.37,5.64c16.35,26.56,34.15,55.16,53.6,85.64
			c1.09,1.71,3.08,2.69,5.38,2.76c7.01,0.23,13.34,3.11,17.21,8.57c4.2,5.93,4.58,13.6,1.78,20.8c-0.85,2.19-0.81,4.43,0.31,6.15
			c17.41,26.74,36.02,54.74,55.96,83.9c1.08,1.57,2.93,2.49,5.07,2.61c6.78,0.36,12.87,3.23,16.63,8.54
			c3.86,5.44,4.49,12.36,2.4,19.03c-0.64,2.05-0.44,4.08,0.65,5.64c5.52,7.9,11.12,15.87,16.83,23.92
			c28.93,39.02,60.77,63.33,95.45,73.2c17.73,5.04,38.85,0.62,56.11-11.62l22.21-15.75
			C4548.17,1832.36,4527.05,1836.78,4509.32,1831.74z"/>
		<path class="st3" d="M4405.55,1019.7c-2.44-27.17-9.63-52.72-24.03-75.8l-180.89-255.16c-11.41-16.1-26.5-29.42-44.75-38.76
			c-40.76-20.86-109.53-24.23-175.03-31.39c-12.35-1.35-22.82-7.08-29.27-16.18l-18.57-26.19l-55,38.99l18.57,26.19
			c6.46,9.11,16.92,14.83,29.27,16.18c65.5,7.16,112.06,26.28,152.82,47.14c18.25,9.34,33.34,22.66,44.75,38.76l180.89,255.16
			c14.41,23.08,21.6,48.63,24.04,75.8c2.27,25.29,9.92,48.96,23.27,69.23c4.77,7.23,10.25,15.01,16.38,23.35
			c1.09,1.48,1.38,3.43,0.86,5.42c-1.63,6.28-0.84,12.68,2.78,17.79c3.92,5.53,10.38,8.42,17.5,8.57c2.07,0.05,3.86,0.84,4.99,2.27
			c18.36,23.23,40.16,49.79,64.85,80.01c1.21,1.48,1.55,3.51,1.04,5.58c-1.5,6.16-0.67,12.4,2.87,17.4
			c4.09,5.76,10.92,8.67,18.4,8.6c2.14-0.02,4.02,0.76,5.2,2.22c19.65,24.22,40.74,50.49,63.07,78.93c1.25,1.6,1.52,3.8,0.83,5.99
			c-2.11,6.69-1.48,13.62,2.39,19.07c4.2,5.93,11.32,8.82,19.04,8.56c2.35-0.08,4.45,0.7,5.7,2.33
			c19.47,25.28,39.73,52.11,60.65,80.58c1.13,1.54,1.38,3.59,0.78,5.65c-1.9,6.52-1.21,13.22,2.55,18.52
			c3.86,5.44,10.17,8.32,17.16,8.56c2.15,0.07,4,0.94,5.11,2.48c5.63,7.82,11.29,15.74,17,23.8c27.24,40.22,39.64,78.31,37.47,114.3
			c-1.11,18.4-12.28,36.87-29.54,49.1l77.22-54.74c17.26-12.24,28.43-30.71,29.54-49.1c2.17-36-10.23-74.09-37.47-114.3
			c-5.71-8.05-11.37-15.98-17-23.8c-1.11-1.54-2.96-2.41-5.11-2.48c-6.99-0.24-13.3-3.12-17.16-8.56
			c-3.76-5.31-4.45-12.01-2.55-18.52c0.6-2.06,0.35-4.11-0.78-5.65c-20.92-28.47-41.18-55.3-60.65-80.58
			c-1.25-1.63-3.35-2.41-5.7-2.33c-7.72,0.26-14.84-2.63-19.04-8.56c-3.87-5.46-4.49-12.39-2.39-19.07
			c0.69-2.19,0.43-4.39-0.83-5.99c-22.33-28.45-43.42-54.71-63.07-78.93c-1.18-1.46-3.06-2.24-5.2-2.22
			c-7.48,0.08-14.31-2.83-18.4-8.6c-3.55-5-4.38-11.24-2.87-17.4c0.51-2.07,0.17-4.1-1.04-5.58
			c-24.69-30.23-46.49-56.79-64.85-80.01c-1.13-1.43-2.92-2.23-4.99-2.27c-7.12-0.15-13.58-3.04-17.5-8.57
			c-3.62-5.11-4.41-11.51-2.78-17.79c0.52-1.98,0.23-3.94-0.86-5.42c-6.14-8.33-11.62-16.11-16.38-23.35
			C4415.47,1068.66,4407.82,1044.99,4405.55,1019.7z"/>
		<g>
			
				<rect x="3707.74" y="597.93" transform="matrix(0.8158 -0.5783 0.5783 0.8158 354.74 2331.5457)" class="st4" width="259.54" height="21.92"/>
			<path class="st5" d="M3844.13,446.09c-0.78,0.52-1.57,1.06-2.37,1.62c-26.95,19.1-78.72,55.8-78.72,55.8s-51.77,36.7-78.71,55.8
				c-0.8,0.57-1.57,1.13-2.32,1.7c-19.16,14.6-24.82,38.94-13.52,54.86l48.77,68.8c2.42,3.41,7.79,3.76,12,0.77l108.32-76.79
				l108.32-76.79c4.21-2.98,5.66-8.17,3.24-11.58l-48.77-68.8C3889.08,435.56,3864.24,432.84,3844.13,446.09z"/>
			<path class="st6" d="M3844.13,446.09c-0.78,0.52-1.57,1.06-2.37,1.62c-14.58,10.34-36.41,25.81-53.39,37.85
				c0.8-0.57,1.59-1.1,2.37-1.62c20.12-13.25,44.96-10.53,56.25,5.4l48.77,68.8c2.42,3.41,0.97,8.6-3.24,11.58l53.39-37.85
				c4.21-2.98,5.66-8.17,3.24-11.58l-48.77-68.8C3889.08,435.56,3864.24,432.84,3844.13,446.09z"/>
			<path class="st5" d="M3840.64,612.98l-108.32,76.79l15.38,21.69c0.51,0.71,1.63,0.78,2.51,0.16l106.73-75.66l106.73-75.66
				c0.88-0.62,1.18-1.71,0.68-2.42l-15.38-21.69L3840.64,612.98z"/>
			<path class="st4" d="M3726.8,675.84L3726.8,675.84c-1.36,0.97-3.1,0.85-3.89-0.25l-50.35-71.02c-0.78-1.1-0.31-2.78,1.05-3.75
				l0,0c1.36-0.97,3.1-0.85,3.89,0.25l50.35,71.02C3728.63,673.19,3728.16,674.87,3726.8,675.84z"/>
			<path class="st4" d="M3745.94,662.27L3745.94,662.27c-1.36,0.97-3.1,0.85-3.89-0.25L3691.71,591c-0.78-1.1-0.31-2.78,1.05-3.75
				l0,0c1.36-0.97,3.1-0.85,3.89,0.25l50.35,71.02C3747.77,659.62,3747.3,661.3,3745.94,662.27z"/>
			<path class="st4" d="M3765.08,648.7L3765.08,648.7c-1.36,0.97-3.1,0.85-3.89-0.25l-50.35-71.02c-0.78-1.1-0.31-2.78,1.05-3.75
				l0,0c1.36-0.97,3.1-0.85,3.89,0.25l50.35,71.02C3766.91,646.06,3766.44,647.73,3765.08,648.7z"/>
			<path class="st4" d="M3784.22,635.13L3784.22,635.13c-1.36,0.97-3.1,0.85-3.89-0.25l-50.35-71.02c-0.78-1.1-0.31-2.78,1.05-3.75
				l0,0c1.36-0.97,3.1-0.85,3.89,0.25l50.35,71.02C3786.05,632.49,3785.58,634.16,3784.22,635.13z"/>
			<path class="st4" d="M3803.36,621.56L3803.36,621.56c-1.36,0.97-3.1,0.85-3.89-0.25l-50.35-71.02c-0.78-1.1-0.31-2.78,1.05-3.75
				l0,0c1.36-0.97,3.1-0.85,3.89,0.25l50.35,71.02C3805.19,618.92,3804.72,620.6,3803.36,621.56z"/>
			<path class="st4" d="M3822.5,607.99L3822.5,607.99c-1.36,0.97-3.1,0.85-3.89-0.25l-50.35-71.02c-0.78-1.1-0.31-2.78,1.05-3.75
				l0,0c1.36-0.97,3.1-0.85,3.89,0.25l50.35,71.02C3824.33,605.35,3823.86,607.03,3822.5,607.99z"/>
			<path class="st4" d="M3841.64,594.42L3841.64,594.42c-1.36,0.97-3.1,0.85-3.89-0.25l-50.35-71.02c-0.78-1.1-0.31-2.78,1.05-3.75
				l0,0c1.36-0.97,3.1-0.85,3.89,0.25l50.35,71.02C3843.47,591.78,3843,593.46,3841.64,594.42z"/>
			<path class="st4" d="M3860.78,580.85L3860.78,580.85c-1.36,0.97-3.1,0.85-3.89-0.25l-50.35-71.02c-0.78-1.1-0.31-2.78,1.05-3.75
				l0,0c1.36-0.97,3.1-0.85,3.89,0.25l50.35,71.02C3862.61,578.21,3862.14,579.89,3860.78,580.85z"/>
			<path class="st4" d="M3879.92,567.29L3879.92,567.29c-1.36,0.97-3.1,0.85-3.89-0.25l-50.35-71.02c-0.78-1.1-0.31-2.78,1.05-3.75
				l0,0c1.36-0.97,3.1-0.85,3.89,0.25l50.35,71.02C3881.75,564.64,3881.28,566.32,3879.92,567.29z"/>
			<path class="st4" d="M3899.06,553.72L3899.06,553.72c-1.36,0.97-3.1,0.85-3.89-0.25l-50.35-71.02c-0.78-1.1-0.31-2.78,1.05-3.75
				l0,0c1.36-0.97,3.1-0.85,3.89,0.25l50.35,71.02C3900.89,551.07,3900.42,552.75,3899.06,553.72z"/>
			<path class="st4" d="M3918.43,539.99l-0.45,0.32c-1.24,0.88-2.96,0.59-3.83-0.65l-50-70.53c-0.88-1.24-0.59-2.96,0.65-3.83
				l0.45-0.32c1.24-0.88,2.96-0.59,3.83,0.65l50,70.53C3919.96,537.39,3919.66,539.11,3918.43,539.99z"/>
			<path class="st4" d="M3937.34,526.58L3937.34,526.58c-1.36,0.97-3.1,0.85-3.89-0.25l-50.35-71.02c-0.78-1.1-0.31-2.78,1.05-3.75
				l0,0c1.36-0.97,3.1-0.85,3.89,0.25l50.35,71.02C3939.17,523.93,3938.7,525.61,3937.34,526.58z"/>
			<path class="st6" d="M3964.03,560.03l-52.17,36.98l-16.39-23.11l53.39-37.85l15.52,21.89
				C3964.87,558.62,3964.71,559.55,3964.03,560.03z"/>
		</g>
		
			<rect x="3804.32" y="810.76" transform="matrix(0.8158 -0.5783 0.5783 0.8158 195.9303 2542.4883)" class="st7" width="569.87" height="305.81"/>
		<g>
			<path class="st8" d="M4371.63,1190.22c-3.62-5.11-4.41-11.51-2.78-17.79c0.37-1.43,0.31-2.84-0.15-4.07l-284.63,201.78
				c1.01,0.84,2.32,1.37,3.79,1.49c6.47,0.54,12.24,3.4,15.86,8.51c3.92,5.53,4.51,12.58,2.3,19.35c-0.35,1.07-0.44,2.13-0.31,3.13
				l286.48-203.09c-0.9-0.45-1.93-0.72-3.06-0.74C4382,1198.64,4375.55,1195.75,4371.63,1190.22z"/>
			<path class="st8" d="M4448.84,1135.48c3.92,5.53,10.38,8.42,17.5,8.57c1.13,0.02,2.16,0.29,3.06,0.74l28.61-20.29
				c-0.9-0.45-1.93-0.72-3.06-0.74c-7.12-0.15-13.58-3.04-17.5-8.57c-3.62-5.11-4.41-11.51-2.78-17.79
				c0.37-1.43,0.31-2.84-0.15-4.07l-28.61,20.29c0.46,1.23,0.52,2.64,0.15,4.07C4444.43,1123.97,4445.22,1130.37,4448.84,1135.48z"
				/>
			<path class="st9" d="M4466.34,1144.05c-7.12-0.15-13.58-3.04-17.5-8.57c-3.62-5.11-4.41-11.51-2.78-17.79
				c0.37-1.43,0.31-2.84-0.15-4.07l-77.22,54.74c0.46,1.23,0.52,2.64,0.15,4.07c-1.63,6.28-0.84,12.68,2.78,17.79
				c3.92,5.53,10.38,8.42,17.5,8.57c1.13,0.02,2.16,0.29,3.06,0.74l77.22-54.74C4468.5,1144.34,4467.47,1144.07,4466.34,1144.05z"/>
			<path class="st8" d="M4540.1,1249.32c4.09,5.76,10.92,8.67,18.4,8.6c1.12-0.01,2.16,0.21,3.08,0.62l28.61-20.29
				c-0.91-0.41-1.95-0.63-3.08-0.62c-7.48,0.08-14.31-2.83-18.4-8.6c-3.55-5-4.38-11.24-2.87-17.4c0.33-1.35,0.26-2.68-0.14-3.85
				l-28.61,20.29c0.4,1.18,0.47,2.5,0.14,3.85C4535.72,1238.07,4536.55,1244.31,4540.1,1249.32z"/>
			<path class="st8" d="M4462.88,1304.06c-3.55-5-4.38-11.24-2.87-17.4c0.33-1.35,0.26-2.67-0.14-3.85l-297.99,211.26
				c0.98,0.77,2.2,1.27,3.59,1.41c6.31,0.62,11.92,3.47,15.47,8.47c4.09,5.77,4.57,13.18,2.02,20.21c-0.38,1.05-0.52,2.11-0.44,3.11
				l301.84-213.98c-0.91-0.41-1.95-0.63-3.08-0.62C4473.8,1312.73,4466.96,1309.82,4462.88,1304.06z"/>
			<path class="st9" d="M4558.5,1257.91c-7.48,0.08-14.31-2.83-18.4-8.6c-3.55-5-4.38-11.24-2.87-17.4
				c0.33-1.35,0.26-2.67-0.14-3.85l-77.22,54.74c0.4,1.18,0.47,2.5,0.14,3.85c-1.5,6.16-0.67,12.4,2.87,17.4
				c4.09,5.76,10.92,8.67,18.4,8.6c1.12-0.01,2.16,0.21,3.08,0.62l77.22-54.74C4560.66,1258.12,4559.62,1257.9,4558.5,1257.91z"/>
			<path class="st8" d="M4571.8,1427.42c-7.72,0.26-14.84-2.63-19.04-8.56c-3.87-5.46-4.49-12.39-2.39-19.07
				c0.32-1.03,0.42-2.05,0.32-3.02l-311.35,220.72c0.88,0.41,1.88,0.66,2.95,0.7c7.01,0.23,13.34,3.11,17.21,8.57
				c4.2,5.93,4.58,13.6,1.78,20.8c-0.34,0.87-0.49,1.74-0.54,2.58l313.67-222.37C4573.61,1427.54,4572.74,1427.39,4571.8,1427.42z"
				/>
			<path class="st8" d="M4629.98,1364.12c4.2,5.93,11.31,8.82,19.04,8.56c0.93-0.03,1.8,0.11,2.62,0.35l28.61-20.29
				c-0.81-0.24-1.69-0.38-2.62-0.35c-7.72,0.26-14.84-2.63-19.04-8.56c-3.87-5.46-4.49-12.39-2.39-19.07
				c0.32-1.03,0.42-2.05,0.32-3.02l-28.61,20.29c0.1,0.97,0.01,1.99-0.32,3.02C4625.49,1351.73,4626.11,1358.67,4629.98,1364.12z"/>
			<path class="st9" d="M4649.02,1372.68c-7.72,0.26-14.84-2.63-19.04-8.56c-3.87-5.46-4.49-12.39-2.39-19.07
				c0.32-1.03,0.42-2.05,0.32-3.02l-77.22,54.74c0.1,0.97,0.01,1.99-0.32,3.02c-2.11,6.69-1.48,13.62,2.39,19.07
				c4.2,5.93,11.32,8.82,19.04,8.56c0.93-0.03,1.8,0.11,2.62,0.35l77.22-54.74C4650.82,1372.79,4649.95,1372.65,4649.02,1372.68z"/>
			<path class="st8" d="M4641.48,1534.5c-3.76-5.31-4.45-12.01-2.55-18.52c0.36-1.22,0.37-2.42,0.13-3.53l-319.81,226.72
				c0.96,0.6,2.11,0.98,3.38,1.05c6.78,0.36,12.87,3.23,16.63,8.54c3.86,5.44,4.49,12.36,2.4,19.03c-0.38,1.2-0.42,2.38-0.21,3.47
				l320.56-227.25c-0.96-0.56-2.09-0.9-3.35-0.95C4651.66,1542.82,4645.34,1539.94,4641.48,1534.5z"/>
			<path class="st8" d="M4718.7,1479.76c3.86,5.44,10.17,8.32,17.16,8.56c1.25,0.04,2.38,0.39,3.35,0.95l28.62-20.29
				c-0.96-0.56-2.09-0.9-3.35-0.95c-6.99-0.24-13.3-3.12-17.16-8.56c-3.76-5.31-4.45-12.01-2.55-18.52
				c0.36-1.22,0.38-2.42,0.13-3.53l-28.61,20.29c0.25,1.11,0.23,2.31-0.13,3.53C4714.25,1467.75,4714.94,1474.45,4718.7,1479.76z"/>
			<path class="st9" d="M4735.86,1488.32c-6.99-0.24-13.3-3.12-17.16-8.56c-3.76-5.31-4.45-12.01-2.55-18.52
				c0.36-1.22,0.37-2.42,0.13-3.53l-77.22,54.74c0.25,1.11,0.23,2.31-0.13,3.53c-1.9,6.52-1.21,13.22,2.55,18.52
				c3.86,5.44,10.17,8.32,17.16,8.56c1.25,0.04,2.38,0.39,3.35,0.95l77.22-54.74C4738.25,1488.7,4737.12,1488.36,4735.86,1488.32z"
				/>
		</g>
		
			<rect x="4207.15" y="693.63" transform="matrix(0.8158 -0.5783 0.5783 0.8158 294.1077 2616.4683)" class="st10" width="94.65" height="305.81"/>
		
			<rect x="3886.82" y="944.62" transform="matrix(0.8158 -0.5783 0.5783 0.8158 83.7354 2457.9456)" class="st11" width="27.23" height="305.81"/>
		<path class="st8" d="M3971.88,554.47l-115.1,81.6l-115.1,81.6c-3.76,2.66-5.05,7.29-2.89,10.33c2.16,3.04,6.95,3.35,10.71,0.69
			l115.1-81.6l115.1-81.6c3.76-2.66,5.05-7.29,2.89-10.33C3980.43,552.12,3975.64,551.81,3971.88,554.47z"/>
	</g>
</g>
</svg>
