<?xml version="1.0" encoding="utf-8"?>
<!-- Generator: Adobe Illustrator 28.1.0, SVG Export Plug-In . SVG Version: 6.00 Build 0)  -->
<svg version="1.1" id="Transport_Symbols" xmlns="http://www.w3.org/2000/svg" xmlns:xlink="http://www.w3.org/1999/xlink" x="0px"
	 y="0px" viewBox="0 0 6250 2500" style="enable-background:new 0 0 6250 2500;" xml:space="preserve">
<style type="text/css">
	.st0{fill:#00A0C9;}
	.st1{fill:#00677E;}
	.st2{fill:#FFFFFF;}
</style>
<g id="Bus_side_view_1_">
	<circle id="Circle_1_" class="st0" cx="3122.86" cy="1250" r="1002.71"/>
	<path id="Bus_side_view_shadow" class="st1" d="M4114.08,1402.25c-0.25-0.24-0.5-0.49-0.76-0.73c-1.6-1.7-3.27-3.37-5-5
		c-1.6-1.7-3.27-3.37-5-5c-1.6-1.7-3.27-3.37-5-5c-1.6-1.7-3.27-3.37-5-5c-1.6-1.7-3.27-3.37-5-5c-1.6-1.7-3.27-3.37-5-5
		c-1.6-1.7-3.27-3.37-5-5c-1.6-1.7-3.27-3.37-5-5c-1.6-1.7-3.27-3.37-5-5c-1.6-1.7-3.27-3.37-5-5c-1.6-1.7-3.27-3.37-5-5
		c-1.6-1.7-3.27-3.37-5-5c-1.6-1.7-3.27-3.37-5-5c-1.6-1.7-3.27-3.37-5-5c-1.6-1.7-3.27-3.37-5-5c-1.6-1.7-3.27-3.37-5-5
		c-1.6-1.7-3.27-3.37-5-5c-1.6-1.7-3.27-3.37-5-5c-1.6-1.7-3.27-3.37-5-5c-1.6-1.7-3.27-3.37-5-5c-1.6-1.7-3.27-3.37-5-5
		c-1.6-1.7-3.27-3.37-5-5c-1.6-1.7-3.27-3.37-5-5c-1.6-1.7-3.27-3.37-5-5c-1.6-1.7-3.27-3.37-5-5c-1.6-1.7-3.27-3.37-5-5
		c-1.6-1.7-3.27-3.37-5-5c-1.6-1.7-3.27-3.37-5-5c-1.6-1.7-3.27-3.37-5-5c-1.6-1.7-3.27-3.37-5-5c-1.6-1.7-3.27-3.37-5-5
		c-1.6-1.7-3.27-3.37-5-5c-1.6-1.7-3.27-3.37-5-5c-1.6-1.7-3.27-3.37-5-5c-1.6-1.7-3.27-3.37-5-5c-1.6-1.7-3.27-3.37-5-5
		c-1.6-1.7-3.27-3.37-5-5c-1.6-1.7-3.27-3.37-5-5c-1.6-1.7-3.27-3.37-5-5c-1.6-1.7-3.27-3.37-5-5c-1.6-1.7-3.27-3.37-5-5
		c-1.6-1.7-3.27-3.37-5-5c-1.6-1.7-3.27-3.37-5-5c-1.6-1.7-3.27-3.37-5-5c-1.6-1.7-3.27-3.37-5-5c-1.6-1.7-3.27-3.37-5-5
		c-1.6-1.7-3.27-3.37-5-5c-1.6-1.7-3.27-3.37-5-5c-1.6-1.7-3.27-3.37-5-5c-1.6-1.7-3.27-3.37-5-5c-1.6-1.7-3.27-3.37-5-5
		c-1.6-1.7-3.27-3.37-5-5c-1.6-1.7-3.27-3.37-5-5c-1.6-1.7-3.27-3.37-5-5c-1.6-1.7-3.27-3.37-5-5c-1.6-1.7-3.27-3.37-5-5
		c-1.6-1.7-3.27-3.37-5-5c-1.6-1.7-3.27-3.37-5-5c-1.6-1.7-3.27-3.37-5-5c-1.6-1.7-3.27-3.37-5-5c-1.6-1.7-3.27-3.37-5-5
		c-1.6-1.7-3.27-3.37-5-5c-1.6-1.7-3.27-3.37-5-5c-1.6-1.7-3.27-3.37-5-5c-1.6-1.7-3.27-3.37-5-5c-1.6-1.7-3.27-3.37-5-5
		c-1.6-1.7-3.27-3.37-5-5c-1.6-1.7-3.27-3.37-5-5c-1.6-1.7-3.27-3.37-5-5c-1.6-1.7-3.27-3.37-5-5c-1.6-1.7-3.27-3.37-5-5
		c-1.6-1.7-3.27-3.37-5-5c-1.6-1.7-3.27-3.37-5-5c-1.6-1.7-3.27-3.37-5-5c-1.6-1.7-3.27-3.37-5-5c-1.6-1.7-3.27-3.37-5-5
		c-1.6-1.7-3.27-3.37-5-5c-1.6-1.7-3.27-3.37-5-5c-1.6-1.7-3.27-3.37-5-5c-1.6-1.7-3.27-3.37-5-5
		c-28.11-29.96-77.98-49.09-133.14-49.09H2516.97c-43.09,0-78.02,23.21-78.02,51.84v444.98c0,7.44,3.93,14.26,10.48,19.61
		c1.43,1.78,3.1,3.45,5,5c1.43,1.78,3.1,3.45,5,5c1.43,1.78,3.1,3.45,5,5c1.43,1.78,3.1,3.45,5,5c1.43,1.78,3.1,3.45,5,5
		c1.43,1.78,3.1,3.45,5,5c1.43,1.78,3.1,3.45,5,5c1.43,1.78,3.1,3.45,5,5c1.43,1.78,3.1,3.45,5,5c1.43,1.78,3.1,3.45,5,5
		c1.43,1.78,3.1,3.45,5,5c1.43,1.78,3.1,3.45,5,5c1.43,1.78,3.1,3.45,5,5c1.43,1.78,3.1,3.45,5,5c1.43,1.78,3.1,3.45,5,5
		c1.43,1.78,3.1,3.45,5,5c1.43,1.78,3.1,3.45,5,5c1.43,1.78,3.1,3.45,5,5c1.43,1.78,3.1,3.45,5,5c1.43,1.78,3.1,3.45,5,5
		c1.43,1.78,3.1,3.45,5,5c1.43,1.78,3.1,3.45,5,5c1.43,1.78,3.1,3.45,5,5c1.43,1.78,3.1,3.45,5,5c1.43,1.78,3.1,3.45,5,5
		c1.43,1.78,3.1,3.45,5,5c1.43,1.78,3.1,3.45,5,5c1.43,1.78,3.1,3.45,5,5c1.43,1.78,3.1,3.45,5,5c1.43,1.78,3.1,3.45,5,5
		c1.43,1.78,3.1,3.45,5,5c1.43,1.78,3.1,3.45,5,5c1.43,1.78,3.1,3.45,5,5c1.43,1.78,3.1,3.45,5,5c1.43,1.78,3.1,3.45,5,5
		c1.43,1.78,3.1,3.45,5,5c1.43,1.78,3.1,3.45,5,5c1.43,1.78,3.1,3.45,5,5c1.43,1.78,3.1,3.45,5,5c1.43,1.78,3.1,3.45,5,5
		c1.43,1.78,3.1,3.45,5,5c1.43,1.78,3.1,3.45,5,5c1.43,1.78,3.1,3.45,5,5c1.43,1.78,3.1,3.45,5,5c1.43,1.78,3.1,3.45,5,5
		c1.43,1.78,3.1,3.45,5,5c1.43,1.78,3.1,3.45,5,5c1.43,1.78,3.1,3.45,5,5c1.43,1.78,3.1,3.45,5,5c1.43,1.78,3.1,3.45,5,5
		c1.43,1.78,3.1,3.45,5,5c1.43,1.78,3.1,3.45,5,5c1.43,1.78,3.1,3.45,5,5c1.43,1.78,3.1,3.45,5,5c1.43,1.78,3.1,3.45,5,5
		c1.43,1.78,3.1,3.45,5,5c1.43,1.78,3.1,3.45,5,5c1.43,1.78,3.1,3.45,5,5c1.43,1.78,3.1,3.45,5,5c1.43,1.78,3.1,3.45,5,5
		c1.43,1.78,3.1,3.45,5,5c1.43,1.78,3.1,3.45,5,5c1.43,1.78,3.1,3.45,5,5c1.43,1.78,3.1,3.45,5,5c1.43,1.78,3.1,3.45,5,5
		c1.43,1.78,3.1,3.45,5,5c1.43,1.78,3.1,3.45,5,5c1.43,1.78,3.1,3.45,5,5c1.43,1.78,3.1,3.45,5,5c1.43,1.78,3.1,3.45,5,5
		c1.43,1.78,3.1,3.45,5,5c1.43,1.78,3.1,3.45,5,5c1.43,1.78,3.1,3.45,5,5c1.43,1.78,3.1,3.45,5,5c1.43,1.78,3.1,3.45,5,5
		c1.43,1.78,3.1,3.45,5,5c1.43,1.78,3.1,3.45,5,5c1.43,1.78,3.1,3.45,5,5c1.43,1.78,3.1,3.45,5,5c1.43,1.78,3.1,3.45,5,5
		c1.43,1.78,3.1,3.45,5,5c1.43,1.78,3.1,3.45,5,5c1.43,1.78,3.1,3.45,5,5c1.43,1.78,3.1,3.45,5,5c1.43,1.78,3.1,3.45,5,5
		c1.43,1.78,3.1,3.45,5,5c1.43,1.78,3.1,3.45,5,5c1.43,1.78,3.1,3.45,5,5c1.43,1.78,3.1,3.45,5,5c1.43,1.78,3.1,3.45,5,5
		c1.43,1.78,3.1,3.45,5,5c1.43,1.78,3.1,3.45,5,5c1.43,1.78,3.1,3.45,5,5c1.43,1.78,3.1,3.45,5,5c1.43,1.78,3.1,3.45,5,5
		c1.43,1.78,3.1,3.45,5,5c1.43,1.78,3.1,3.45,5,5c1.43,1.78,3.1,3.45,5,5c1.43,1.78,3.1,3.45,5,5c1.43,1.78,3.1,3.45,5,5
		c1.43,1.78,3.1,3.45,5,5c1.43,1.78,3.1,3.45,5,5c1.43,1.78,3.1,3.45,5,5c1.43,1.78,3.1,3.45,5,5c1.43,1.78,3.1,3.45,5,5
		c1.43,1.78,3.1,3.45,5,5c1.43,1.78,3.1,3.45,5,5c1.43,1.78,3.1,3.45,5,5c1.43,1.78,3.1,3.45,5,5c1.43,1.78,3.1,3.45,5,5
		c1.43,1.78,3.1,3.45,5,5c1.43,1.78,3.1,3.45,5,5c1.43,1.78,3.1,3.45,5,5c1.43,1.78,3.1,3.45,5,5c1.43,1.78,3.1,3.45,5,5
		c1.43,1.78,3.1,3.45,5,5c1.43,1.78,3.1,3.45,5,5c1.43,1.78,3.1,3.45,5,5c1.43,1.78,3.1,3.45,5,5c1.43,1.78,3.1,3.45,5,5
		c1.43,1.78,3.1,3.45,5,5c1.43,1.78,3.1,3.45,5,5c1.43,1.78,3.1,3.45,5,5c1.43,1.78,3.1,3.45,5,5c1.43,1.78,3.1,3.45,5,5
		c1.43,1.78,3.1,3.45,5,5c1.43,1.78,3.1,3.45,5,5c1.43,1.78,3.1,3.45,5,5c1.43,1.78,3.1,3.45,5,5c1.43,1.78,3.1,3.45,5,5
		c1.43,1.78,3.1,3.45,5,5c1.43,1.78,3.1,3.45,5,5c1.43,1.78,3.1,3.45,5,5c1.43,1.78,3.1,3.45,5,5c1.43,1.78,3.1,3.45,5,5
		c1.43,1.78,3.1,3.45,5,5c1.43,1.78,3.1,3.45,5,5c1.43,1.78,3.1,3.45,5,5c1.43,1.78,3.1,3.45,5,5c1.43,1.78,3.1,3.45,5,5
		c1.43,1.78,3.1,3.45,5,5c1.43,1.78,3.1,3.45,5,5c1.43,1.78,3.1,3.45,5,5c1.43,1.78,3.1,3.45,5,5c1.43,1.78,3.1,3.45,5,5
		c1.43,1.78,3.1,3.45,5,5c1.43,1.78,3.1,3.45,5,5c1.43,1.78,3.1,3.45,5,5c1.43,1.78,3.1,3.45,5,5c1.43,1.78,3.1,3.45,5,5
		c1.43,1.78,3.1,3.45,5,5c1.43,1.78,3.1,3.45,5,5c1.43,1.78,3.1,3.45,5,5c1.43,1.78,3.1,3.45,5,5c1.43,1.78,3.1,3.45,5,5
		c0.96,1.19,2.04,2.34,3.21,3.43C3681.8,2200.12,4045.9,1849.84,4114.08,1402.25z"/>
	<g id="Bus_side_view">
		
			<ellipse id="Tyre_1_" transform="matrix(0.7071 -0.7071 0.7071 0.7071 -237.4641 2343.0488)" class="st2" cx="2709.58" cy="1458.17" rx="89.4" ry="89.4"/>
		
			<ellipse id="Tyre" transform="matrix(0.7071 -0.7071 0.7071 0.7071 5.5676 2929.7791)" class="st2" cx="3539.34" cy="1458.17" rx="89.4" ry="89.4"/>
		<path id="Bus_3_" class="st2" d="M3807.28,1207.49l-76.12-179.16c-19.08-44.9-80.75-75.91-150.97-75.91H2516.97
			c-43.09,0-78.02,23.21-78.02,51.84v444.98c0,17.18,20.96,31.1,46.81,31.1h114.45c-1.45-7.17-2.21-14.58-2.21-22.18
			c0-61.62,49.96-111.58,111.58-111.58c61.62,0,111.58,49.96,111.58,111.58c0,7.59-0.76,15.01-2.21,22.18h611.02
			c-1.45-7.17-2.21-14.58-2.21-22.18c0-61.62,49.96-111.58,111.58-111.58c61.62,0,111.58,49.96,111.58,111.58
			c0,7.59-0.76,15.01-2.21,22.18h115.53c25.86,0,46.81-13.92,46.81-31.1v-223.62C3811.06,1219.5,3809.78,1213.4,3807.28,1207.49z
			 M2709.58,1177.3c0,11.51-9.33,20.84-20.84,20.84h-188.05c-11.51,0-20.84-9.33-20.84-20.84v-114.53
			c0-11.51,9.33-20.84,20.84-20.84h188.05c11.51,0,20.84,9.33,20.84,20.84V1177.3z M2970.78,1177.3c0,11.51-9.33,20.84-20.84,20.84
			h-188.05c-11.51,0-20.84-9.33-20.84-20.84v-114.53c0-11.51,9.33-20.84,20.84-20.84h188.05c11.51,0,20.84,9.33,20.84,20.84V1177.3z
			 M3231.99,1177.3c0,11.51-9.33,20.84-20.84,20.84H3023.1c-11.51,0-20.84-9.33-20.84-20.84v-114.53c0-11.51,9.33-20.84,20.84-20.84
			h188.05c11.51,0,20.84,9.33,20.84,20.84V1177.3z M3493.19,1177.3c0,11.51-9.33,20.84-20.84,20.84H3284.3
			c-11.51,0-20.84-9.33-20.84-20.84v-114.53c0-11.51,9.33-20.84,20.84-20.84h188.05c11.51,0,20.84,9.33,20.84,20.84V1177.3z
			 M3727.16,1198.14h-177.99c-11.51,0-20.84-8.93-20.84-19.95v-116.32c0-11.02,9.33-19.95,20.84-19.95h128.91
			c8.5,0,16.14,4.94,19.33,12.48l49.08,116.32C3752.02,1183.84,3741.94,1198.14,3727.16,1198.14z"/>
	</g>
</g>
</svg>
