<?xml version="1.0" encoding="utf-8"?>
<!-- Generator: Adobe Illustrator 28.1.0, SVG Export Plug-In . SVG Version: 6.00 Build 0)  -->
<svg version="1.1" id="Layer_1" xmlns="http://www.w3.org/2000/svg" xmlns:xlink="http://www.w3.org/1999/xlink" x="0px" y="0px"
	 viewBox="0 0 595.28 404.43" style="enable-background:new 0 0 595.28 404.43;" xml:space="preserve">
<style type="text/css">
	.st0{fill:#010101;stroke:#231F20;stroke-width:0.25;stroke-miterlimit:10;}
	.st1{fill:none;}
	.st2{fill:#231F20;}
	.st3{font-family:'MyriadPro-Regular';}
	.st4{font-size:48px;}
</style>
<path class="st0" d="M190,382.49c-0.45,0-0.91-0.08-1.35-0.26c-1.58-0.62-2.5-2.16-2.28-3.85l8.5-65.76
	c-29.81-12.65-54.85-30.7-72.47-52.25c-18.51-22.65-28.3-48.62-28.3-75.11c0-39.52,21.25-76.63,59.84-104.5
	c38.39-27.72,89.4-42.99,143.64-42.99s105.25,15.27,143.64,42.99c38.59,27.87,59.84,64.98,59.84,104.5
	c0,39.52-21.25,76.63-59.84,104.5c-38.39,27.72-89.4,42.99-143.64,42.99c-22.24,0-44.09-2.58-64.98-7.68l-39.67,55.88
	C192.22,381.94,191.14,382.49,190,382.49z M297.58,41.77c-109.99,0-199.48,64.37-199.48,143.49c0,51.02,38.21,98.64,99.71,124.26
	l1.41,0.59l-8.7,67.32l40.39-56.89l1.33,0.33c20.97,5.23,42.96,7.88,65.34,7.88c109.99,0,199.48-64.37,199.48-143.49
	C497.06,106.14,407.57,41.77,297.58,41.77z"/>
<rect x="185.56" y="109.49" class="st1" width="273.42" height="160.76"/>
<text transform="matrix(1 0 0 1 185.5568 143.5735)"><tspan x="0" y="0" class="st2 st3 st4">Gain EXP to </tspan><tspan x="0" y="57.6" class="st2 st3 st4">watch me </tspan><tspan x="0" y="115.2" class="st2 st3 st4">evolve! </tspan></text>
</svg>
