<?xml version="1.0" encoding="utf-8"?>
<!-- Generator: Adobe Illustrator 28.1.0, SVG Export Plug-In . SVG Version: 6.00 Build 0)  -->
<svg version="1.1" xmlns="http://www.w3.org/2000/svg" xmlns:xlink="http://www.w3.org/1999/xlink" x="0px" y="0px"
	 viewBox="0 0 595.28 841.89" style="enable-background:new 0 0 595.28 841.89;" xml:space="preserve">
<style type="text/css">
	.st0{display:none;}
	.st1{fill:#AD6E34;stroke:#231F20;stroke-width:0.7037;stroke-miterlimit:10;}
	.st2{fill:#231F20;stroke:#231F20;stroke-width:0.7037;stroke-miterlimit:10;}
	.st3{fill:#FAC7CA;}
	.st4{fill:#FAC7CA;stroke:#231F20;stroke-width:0.7037;stroke-miterlimit:10;}
	.st5{fill:#231F20;stroke:#1F8F45;stroke-miterlimit:10;}
	.st6{fill:#1F8F45;stroke:#231F20;stroke-width:1.4075;stroke-miterlimit:10;}
	.st7{fill:#231F20;stroke:#1F8F45;stroke-width:1.4075;stroke-miterlimit:10;}
</style>
<g id="Layer_1" class="st0">
</g>
<g id="Layer_3">
	<ellipse class="st1" cx="220.55" cy="541.8" rx="14.56" ry="4.72"/>
	<ellipse class="st1" cx="335.31" cy="537.08" rx="14.56" ry="4.72"/>
	<ellipse class="st1" cx="247.48" cy="612.58" rx="5.5" ry="11.1"/>
	<ellipse class="st1" cx="316.71" cy="611.69" rx="5.5" ry="11.1"/>
</g>
<g id="Layer_2">
	<path class="st1" d="M328.71,415.88c-12.71,17.86,12.71,177.97,12.71,177.97c6.57,17.69-57.42,17.69-57.42,17.69
		c-52.16,2.02-58.74-16.68-58.74-16.68s-15.78-166.01,4.38-205.94c0,0-60.49-27.8-56.69-33.86c0,0-52.31-10.44-122.44-17.52
		c0,0,55.81-3.71,109.87,5.9l-29.51-32.51c0,0,42.52,30.24,48.8,31c0,0-6.43-26.78,14.03-32.68c0,0,1.17,37.9,5.55,45.82
		c4.38,7.92,51.43,24.09,51.43,24.09s4.09-21.06-2.63-43.12c-6.72-22.07-55.67-50.28-55.67-50.28s-14.76-7.83-20.31-11.03
		c0,0-71.89-12.63-88.54-20.05c0,0-56.69-18.87-56.69-20.72s81.82,18.7,81.82,18.7l-30.98-50.54l53.77,55.25l26.88,6.57
		c0,0-12.27-24.26-12.27-31.67s-30.1-46.66-30.1-46.66s14.9,9.94,32.73,35.38s26.34,37.06,35.67,39.08c0,0,29.93,9.73,73.77,39.42
		c0,0-3.07-42.62,17.97-64.69c21.04-22.07,33.9-31,33.9-31s-11.68-45.68-17.63-49.1l-14.3-23.75c0,0,10.96-1.14,26.3,26.41
		c0,0,4.82-18.45,25.86-24.26l-17.75,34.74c0,0,9.42,19.2,9.42,25.27l96.43-56.73l-65.09,56.22c0,0,65.09-8.46,71.23-12
		c6.14-3.54-21.7,19.08-81.09,20.34c0,0-46.24,56.98-35.72,68.86l23.67-10.4l19.14-20.72c0,0,2.19,7.75-4.68,16.59l53.48-12.38
		c0,0-93.66,35.38-93.66,43.12s-0.58,45.82-0.58,45.82s2.19-13.14,93.36-28.05c0,0,41.2-5.81,64-30.83
		c22.79-25.02,59.61-34.62,59.61-34.62s-34.19,22.49-41.64,31.08c-7.45,8.59-30.68,31.08-39.01,32.34
		c-8.33,1.26,136.32-20.97,136.32-25.52c0,0-81.53,29.56-131.5,35.88s-88.1,19.71-88.1,19.71s-19.29,5.81-24.11,11.62
		c-4.82,5.81-3.07,56.85-3.07,56.85s25.86-47.76,45.15-46.24l-25.86,39.92c0,0,57.86-25.27,66.63-25.27c0,0,19.72-5.81,42.08-7.58
		c22.35-1.77,32.87-1.77,32.87-1.77s-55.67,8.59-68.82,18.19C409.8,387.16,328.71,415.88,328.71,415.88z"/>
	<ellipse class="st2" cx="231.46" cy="496.96" rx="3.65" ry="4.88"/>
	<ellipse class="st2" cx="311.21" cy="496.96" rx="3.65" ry="4.88"/>
	<ellipse class="st3" cx="232.18" cy="513.7" rx="8.32" ry="2.97"/>
	<ellipse class="st3" cx="315.89" cy="513.7" rx="8.32" ry="2.97"/>
	<line class="st4" x1="266.85" y1="510.73" x2="275.77" y2="510.73"/>
	<path class="st5" d="M101.04,64.12"/>
</g>
<g id="Layer_4">
	<path class="st6" d="M100.47,343.44"/>
	<line class="st7" x1="87.94" y1="337.98" x2="64.7" y2="353.89"/>
	<line class="st7" x1="94.95" y1="341" x2="71.71" y2="356.9"/>
	<line class="st7" x1="104.4" y1="341" x2="81.16" y2="356.9"/>
	<line class="st7" x1="112.1" y1="342.42" x2="88.85" y2="358.33"/>
	<line class="st7" x1="116.02" y1="343.44" x2="92.78" y2="359.34"/>
	<line class="st7" x1="89.74" y1="313.99" x2="92.78" y2="342"/>
	<line class="st7" x1="95.31" y1="313.99" x2="98.35" y2="342"/>
	<line class="st7" x1="103.11" y1="313.15" x2="106.15" y2="341.15"/>
	<line class="st7" x1="109.45" y1="313.15" x2="112.49" y2="341.15"/>
	<line class="st7" x1="114" y1="313.99" x2="117.04" y2="342"/>
	<line class="st7" x1="54.78" y1="243.84" x2="31.54" y2="259.74"/>
	<line class="st7" x1="61.79" y1="246.85" x2="38.55" y2="262.76"/>
	<line class="st7" x1="71.24" y1="246.85" x2="48" y2="262.76"/>
	<line class="st7" x1="78.94" y1="248.27" x2="55.7" y2="264.18"/>
	<line class="st7" x1="82.87" y1="249.29" x2="59.62" y2="265.2"/>
	<line class="st7" x1="56.58" y1="219.85" x2="59.62" y2="247.85"/>
	<line class="st7" x1="62.16" y1="219.85" x2="65.2" y2="247.85"/>
	<line class="st7" x1="69.95" y1="219" x2="72.99" y2="247"/>
	<line class="st7" x1="76.29" y1="219" x2="79.33" y2="247"/>
	<line class="st7" x1="80.84" y1="219.85" x2="83.88" y2="247.85"/>
	<line class="st7" x1="121.22" y1="196" x2="93.09" y2="197.42"/>
	<line class="st7" x1="125.62" y1="202.23" x2="97.49" y2="203.65"/>
	<line class="st7" x1="133.68" y1="207.17" x2="105.55" y2="208.59"/>
	<line class="st7" x1="139.49" y1="212.4" x2="111.36" y2="213.82"/>
	<line class="st7" x1="142.31" y1="215.32" x2="114.18" y2="216.74"/>
	<line class="st7" x1="135.28" y1="176.48" x2="123.25" y2="201.95"/>
	<line class="st7" x1="140.03" y1="179.39" x2="128" y2="204.86"/>
	<line class="st7" x1="147.12" y1="182.74" x2="135.09" y2="208.21"/>
	<line class="st7" x1="152.53" y1="186.06" x2="140.5" y2="211.52"/>
	<line class="st7" x1="155.97" y1="189.16" x2="143.93" y2="214.62"/>
	<line class="st7" x1="384.84" y1="245.02" x2="394.91" y2="218.72"/>
	<line class="st7" x1="377.36" y1="246.53" x2="387.43" y2="220.23"/>
	<line class="st7" x1="369.59" y1="251.91" x2="379.65" y2="225.6"/>
	<line class="st7" x1="362.45" y1="255.11" x2="372.52" y2="228.81"/>
	<line class="st7" x1="358.64" y1="256.51" x2="368.71" y2="230.21"/>
	<line class="st7" x1="397" y1="265.78" x2="378.58" y2="244.48"/>
	<line class="st7" x1="392.42" y1="268.95" x2="373.99" y2="247.65"/>
	<line class="st7" x1="386.49" y1="274.08" x2="368.06" y2="252.78"/>
	<line class="st7" x1="381.27" y1="277.68" x2="362.85" y2="256.38"/>
	<line class="st7" x1="377.05" y1="279.57" x2="358.62" y2="258.27"/>
	<line class="st7" x1="407.68" y1="181.55" x2="417.75" y2="155.24"/>
	<line class="st7" x1="400.2" y1="183.05" x2="410.27" y2="156.75"/>
	<line class="st7" x1="392.43" y1="188.43" x2="402.5" y2="162.13"/>
	<line class="st7" x1="385.29" y1="191.64" x2="395.36" y2="165.33"/>
	<line class="st7" x1="381.48" y1="193.03" x2="391.55" y2="166.73"/>
	<line class="st7" x1="419.85" y1="202.3" x2="401.42" y2="181"/>
	<line class="st7" x1="415.26" y1="205.47" x2="396.83" y2="184.17"/>
	<line class="st7" x1="409.33" y1="210.6" x2="390.9" y2="189.3"/>
	<line class="st7" x1="404.12" y1="214.21" x2="385.69" y2="192.91"/>
	<line class="st7" x1="399.9" y1="216.1" x2="381.47" y2="194.8"/>
	<line class="st7" x1="514.88" y1="294.8" x2="524.95" y2="268.5"/>
	<line class="st7" x1="508.9" y1="292.69" x2="518.97" y2="266.38"/>
	<line class="st7" x1="495.73" y1="294.8" x2="505.8" y2="268.5"/>
	<line class="st7" x1="488.59" y1="298.01" x2="498.66" y2="271.7"/>
	<line class="st7" x1="484.78" y1="299.41" x2="494.85" y2="273.1"/>
	<line class="st7" x1="526.85" y1="312.94" x2="508.42" y2="291.64"/>
	<line class="st7" x1="523.15" y1="317.9" x2="504.72" y2="296.6"/>
	<line class="st7" x1="512.63" y1="316.97" x2="494.21" y2="295.67"/>
	<line class="st7" x1="507.42" y1="320.58" x2="488.99" y2="299.28"/>
	<line class="st7" x1="503.2" y1="322.47" x2="484.77" y2="301.17"/>
	<line class="st7" x1="544.35" y1="284.74" x2="554.42" y2="258.44"/>
	<line class="st7" x1="536.87" y1="286.25" x2="546.94" y2="259.94"/>
	<line class="st7" x1="529.1" y1="291.63" x2="539.17" y2="265.32"/>
	<line class="st7" x1="521.96" y1="294.83" x2="532.03" y2="268.53"/>
	<line class="st7" x1="518.15" y1="296.23" x2="528.22" y2="269.92"/>
	<line class="st7" x1="561.63" y1="306.63" x2="543.2" y2="285.33"/>
	<line class="st7" x1="554.3" y1="306.63" x2="535.88" y2="285.33"/>
	<line class="st7" x1="548.38" y1="311.76" x2="529.95" y2="290.46"/>
	<line class="st7" x1="543.16" y1="315.36" x2="524.73" y2="294.06"/>
	<line class="st7" x1="538.94" y1="317.25" x2="520.51" y2="295.96"/>
	<line class="st7" x1="568.25" y1="279.87" x2="578.32" y2="253.56"/>
	<line class="st7" x1="563.73" y1="279.87" x2="573.79" y2="253.56"/>
	<line class="st7" x1="559.67" y1="279.87" x2="569.74" y2="253.56"/>
	<line class="st7" x1="552.53" y1="283.07" x2="562.6" y2="256.77"/>
	<line class="st7" x1="548.72" y1="284.47" x2="558.79" y2="258.16"/>
	<line class="st7" x1="589.83" y1="296.9" x2="571.4" y2="275.6"/>
	<line class="st7" x1="582.5" y1="299.77" x2="564.07" y2="278.47"/>
	<line class="st7" x1="576.57" y1="302.03" x2="558.14" y2="280.73"/>
	<line class="st7" x1="571.36" y1="305.64" x2="552.93" y2="284.34"/>
	<line class="st7" x1="567.13" y1="307.53" x2="548.71" y2="286.23"/>
	<line class="st7" x1="458.89" y1="361.13" x2="468.96" y2="334.83"/>
	<line class="st7" x1="451.41" y1="362.64" x2="461.48" y2="336.33"/>
	<line class="st7" x1="443.64" y1="368.02" x2="453.71" y2="341.71"/>
	<line class="st7" x1="436.5" y1="371.22" x2="446.57" y2="344.92"/>
	<line class="st7" x1="432.69" y1="372.62" x2="442.76" y2="346.31"/>
	<line class="st7" x1="471.06" y1="381.88" x2="452.63" y2="360.58"/>
	<line class="st7" x1="466.47" y1="385.05" x2="448.04" y2="363.75"/>
	<line class="st7" x1="460.54" y1="390.18" x2="442.11" y2="368.88"/>
	<line class="st7" x1="455.32" y1="393.79" x2="436.9" y2="372.49"/>
	<line class="st7" x1="451.1" y1="395.68" x2="432.67" y2="374.38"/>
	<line class="st7" x1="280.49" y1="136.99" x2="252.35" y2="138.12"/>
	<line class="st7" x1="284.83" y1="143.26" x2="256.68" y2="144.4"/>
	<line class="st7" x1="292.83" y1="148.28" x2="264.69" y2="149.42"/>
	<line class="st7" x1="298.6" y1="153.57" x2="270.46" y2="154.71"/>
	<line class="st7" x1="301.39" y1="156.52" x2="273.24" y2="157.66"/>
	<line class="st7" x1="294.75" y1="117.62" x2="282.46" y2="142.96"/>
	<line class="st7" x1="299.47" y1="120.58" x2="287.18" y2="145.92"/>
	<line class="st7" x1="306.53" y1="124" x2="294.23" y2="149.34"/>
	<line class="st7" x1="311.9" y1="127.37" x2="299.61" y2="152.71"/>
	<line class="st7" x1="315.31" y1="130.5" x2="303.01" y2="155.84"/>
	<line class="st7" x1="143.87" y1="220.86" x2="115.79" y2="218.72"/>
	<line class="st7" x1="147.45" y1="227.6" x2="119.37" y2="225.45"/>
	<line class="st7" x1="154.82" y1="233.52" x2="126.74" y2="231.37"/>
	<line class="st7" x1="159.93" y1="239.45" x2="131.85" y2="237.3"/>
	<line class="st7" x1="162.36" y1="242.7" x2="134.28" y2="240.55"/>
	<line class="st7" x1="160.29" y1="203.28" x2="145.14" y2="227.02"/>
	<line class="st7" x1="164.64" y1="206.77" x2="149.48" y2="230.51"/>
	<line class="st7" x1="171.25" y1="210.99" x2="156.09" y2="234.73"/>
	<line class="st7" x1="176.19" y1="214.96" x2="161.04" y2="238.7"/>
	<line class="st7" x1="179.21" y1="218.47" x2="164.05" y2="242.21"/>
	<line class="st7" x1="485.51" y1="355.82" x2="495.57" y2="329.52"/>
	<line class="st7" x1="478.03" y1="357.33" x2="488.1" y2="331.03"/>
	<line class="st7" x1="470.25" y1="362.71" x2="480.32" y2="336.4"/>
	<line class="st7" x1="463.12" y1="365.91" x2="473.18" y2="339.61"/>
	<line class="st7" x1="459.31" y1="367.31" x2="469.38" y2="341.01"/>
	<line class="st7" x1="497.67" y1="376.58" x2="479.24" y2="355.28"/>
	<line class="st7" x1="493.09" y1="379.75" x2="474.66" y2="358.45"/>
	<line class="st7" x1="487.16" y1="384.88" x2="468.73" y2="363.58"/>
	<line class="st7" x1="481.94" y1="388.48" x2="463.51" y2="367.18"/>
	<line class="st7" x1="477.72" y1="390.37" x2="459.29" y2="369.07"/>
	<line class="st7" x1="516.09" y1="241.75" x2="526.16" y2="215.44"/>
	<line class="st7" x1="508.61" y1="243.26" x2="518.68" y2="216.95"/>
	<line class="st7" x1="500.84" y1="248.63" x2="510.91" y2="222.33"/>
	<line class="st7" x1="493.7" y1="251.84" x2="503.77" y2="225.53"/>
	<line class="st7" x1="489.89" y1="253.24" x2="499.96" y2="226.93"/>
	<line class="st7" x1="528.26" y1="262.5" x2="509.83" y2="241.2"/>
	<line class="st7" x1="523.67" y1="265.67" x2="505.24" y2="244.37"/>
	<line class="st7" x1="517.74" y1="270.8" x2="499.31" y2="249.5"/>
	<line class="st7" x1="512.53" y1="274.41" x2="494.1" y2="253.11"/>
	<line class="st7" x1="508.3" y1="276.3" x2="489.88" y2="255"/>
	<line class="st7" x1="62.33" y1="335.14" x2="36.59" y2="346.57"/>
	<line class="st7" x1="71.63" y1="336.85" x2="45.89" y2="348.28"/>
	<line class="st7" x1="78.94" y1="339.64" x2="53.19" y2="351.07"/>
	<line class="st7" x1="82.61" y1="341.36" x2="56.87" y2="352.79"/>
	<line class="st7" x1="62.1" y1="307.64" x2="60.02" y2="335.73"/>
	<line class="st7" x1="67.58" y1="308.65" x2="65.5" y2="336.74"/>
	<line class="st7" x1="75.4" y1="309.23" x2="73.32" y2="337.32"/>
	<line class="st7" x1="81.64" y1="310.38" x2="79.56" y2="338.47"/>
	<line class="st7" x1="85.96" y1="312.04" x2="83.87" y2="340.12"/>
	<line class="st7" x1="30.12" y1="238.05" x2="6.44" y2="253.29"/>
	<line class="st7" x1="37.04" y1="241.26" x2="13.36" y2="256.5"/>
	<line class="st7" x1="46.49" y1="241.53" x2="22.81" y2="256.77"/>
	<line class="st7" x1="54.14" y1="243.17" x2="30.46" y2="258.41"/>
	<line class="st7" x1="58.04" y1="244.3" x2="34.35" y2="259.54"/>
	<line class="st7" x1="32.6" y1="214.13" x2="34.85" y2="242.2"/>
	<line class="st7" x1="38.17" y1="214.28" x2="40.42" y2="242.36"/>
	<line class="st7" x1="45.99" y1="213.66" x2="48.23" y2="241.73"/>
	<line class="st7" x1="52.33" y1="213.84" x2="54.57" y2="241.91"/>
	<line class="st7" x1="56.85" y1="214.81" x2="59.1" y2="242.89"/>
</g>
</svg>
