<?xml version="1.0" encoding="utf-8"?>
<!-- Generator: Adobe Illustrator 28.1.0, SVG Export Plug-In . SVG Version: 6.00 Build 0)  -->
<svg version="1.1" xmlns="http://www.w3.org/2000/svg" xmlns:xlink="http://www.w3.org/1999/xlink" x="0px" y="0px"
	 viewBox="0 0 9160 3053.33" style="enable-background:new 0 0 9160 3053.33;" xml:space="preserve">
<style type="text/css">
	.st0{fill:#BBEBFF;}
	.st1{fill:#8CC341;}
</style>
<g id="Layer_2">
	<circle class="st0" cx="4580" cy="1386.67" r="1210"/>
</g>
<g id="_x2014_ÎÓÈ_x5F_1">
	<g>
		<path class="st1" d="M5167.09,902.18C4506.08,116.5,4144.28,795.67,4144.28,795.67c358.87-148.86,765.95,28.55,765.95,28.55
			c-465.44-158.87-899.26,83.86-899.26,83.86l5.22,45.43c22.66-29.32,116.01-67.29,116.01-67.29s182.52,273.61,549.13,198.64
			c51.52-10.54,101.5-27.49,149.32-49.36C4918.14,995.47,5136.28,897.59,5167.09,902.18z"/>
		<path class="st1" d="M4282.5,1417.47c-34.88-39.35-74.55-74.16-117.41-104.63c-78.42-55.77-272.25-195.74-283.68-224.72
			c-349.91,965.29,419.16,939.04,419.16,939.04c-308.35-236.36-358.25-677.61-358.25-677.61
			c95.14,482.52,522.26,736.85,522.26,736.85l36.74-27.23c-36.72-4.96-116.28-66.82-116.28-66.82S4530.72,1697.47,4282.5,1417.47z"
			/>
		<path class="st1" d="M5288.92,1276.07c-50.52,385.22-407.7,649.05-407.7,649.05c370.31-323.65,377-820.71,377-820.71l-41.95-18.2
			c14.06,34.28,0.28,134.11,0.28,134.11s-328.21,21.27-446.59,376.24c-16.64,49.89-26.94,101.64-31.91,154
			c-9.09,95.8-33.39,333.64-52.77,358.04C5696.19,1928.97,5288.92,1276.07,5288.92,1276.07z"/>
	</g>
</g>
</svg>
