<?xml version="1.0" encoding="utf-8"?>
<!-- Generator: Adobe Illustrator 28.1.0, SVG Export Plug-In . SVG Version: 6.00 Build 0)  -->
<svg version="1.1" id="Layer_1" xmlns="http://www.w3.org/2000/svg" xmlns:xlink="http://www.w3.org/1999/xlink" x="0px" y="0px"
	 viewBox="0 0 407.14 390.24" style="enable-background:new 0 0 407.14 390.24;" xml:space="preserve">
<style type="text/css">
	.st0{fill-rule:evenodd;clip-rule:evenodd;fill:#1F3E1C;}
</style>
<g>
	<path class="st0" d="M142.28,156.78H186v39.56h-43.73V156.78L142.28,156.78z M277.99,41.05c0-7.76,6.95-14.07,15.55-14.07
		c8.57,0,15.55,6.29,15.55,14.07v40.6c0,7.76-6.95,14.07-15.55,14.07c-8.57,0-15.55-6.29-15.55-14.07V41.05L277.99,41.05z
		 M85.16,41.05c0-7.76,6.95-14.07,15.55-14.07c8.57,0,15.55,6.29,15.55,14.07v40.6c0,7.76-6.95,14.07-15.55,14.07
		c-8.57,0-15.55-6.29-15.55-14.07L85.16,41.05L85.16,41.05z M73.05,57.93h2.78v23.73c0,12.42,11.14,22.5,24.87,22.5
		s24.87-10.08,24.87-22.5V57.93H268.7v23.73c0,12.42,11.14,22.5,24.87,22.5c13.73,0,24.87-10.08,24.87-22.5V57.93h2.78
		c11.25,0,21.49,4.17,28.9,10.87c7.41,6.71,12.02,15.95,12.02,26.15v225c0,10.18-4.6,19.44-12.02,26.15
		c-7.41,6.71-17.63,10.87-28.9,10.87H73.05c-11.25,0-21.49-4.17-28.9-10.87c-7.41-6.71-12.02-15.95-12.02-26.15v-225
		c0-10.18,4.6-19.44,12.02-26.15C51.56,62.1,61.78,57.93,73.05,57.93L73.05,57.93z M47.68,129.2v190.73
		c0,6.31,2.85,12.04,7.46,16.21c4.6,4.17,10.94,6.75,17.92,6.75h248.14c6.97,0,13.31-2.58,17.89-6.75c4.6-4.17,7.46-9.9,7.46-16.21
		V129.2H47.68L47.68,129.2z M208.22,276.13h43.73v39.56h-43.73V276.13L208.22,276.13z M142.28,276.13H186v39.56h-43.73V276.13
		L142.28,276.13z M76.32,196.32h43.73v-39.56H76.32L76.32,196.32L76.32,196.32z M76.32,276.13h43.73v39.56H76.32L76.32,276.13
		L76.32,276.13z M76.32,216.44h43.73v39.56H76.32L76.32,216.44L76.32,216.44z M142.28,216.44H186v39.56h-43.73V216.44L142.28,216.44
		z M274.18,216.44h43.73v39.56h-43.73V216.44L274.18,216.44z M208.22,216.44h43.73v39.56h-43.73V216.44L208.22,216.44z
		 M274.18,315.67h43.73v-39.54h-43.73V315.67L274.18,315.67z M274.18,156.78h43.73v39.56h-43.73V156.78L274.18,156.78z
		 M208.22,156.78h43.73v39.56h-43.73V156.78L208.22,156.78z"/>
</g>
</svg>
