<?xml version="1.0" encoding="utf-8"?>
<!-- Generator: Adobe Illustrator 28.1.0, SVG Export Plug-In . SVG Version: 6.00 Build 0)  -->
<svg version="1.1" id="Layer_1" xmlns="http://www.w3.org/2000/svg" xmlns:xlink="http://www.w3.org/1999/xlink" x="0px" y="0px"
	 viewBox="0 0 600 600" style="enable-background:new 0 0 600 600;" xml:space="preserve">
<style type="text/css">
	.st0{fill:#1F3E1C;}
</style>
<g id="bg-white">
</g>
<g id="logo">
	<g>
		<g>
			<path class="st0" d="M422.34,165.26c1.56-2.61,0.56-5.79-3.12-5.79h-31.5c0,0,0.14,5.24-0.86,21.25
				c-1,16.01-2.51,23.88-2.51,23.88c-0.98,6.35-3.7,10.35-10.17,12.75c-2.74,1.02-13.17,3.21-22.52,5.07h60.83
				c4.38,0,5.05-3.49,3.77-6.09l-11.33-23.15c-0.74-1.49-0.63-3.3,0.26-4.79L422.34,165.26z"/>
		</g>
		<path class="st0" d="M370.5,209.76h-69.04v-62.85h74.48c2.09,0,3.68,1.65,3.58,3.74c0,0-0.11,10.87-1.46,29.29
			s-2.44,25.02-2.44,25.02C374.9,208.15,372.58,209.76,370.5,209.76z"/>
		<path class="st0" d="M308.24,138.67c0,5.31-4.3,9.61-9.61,9.61c-5.31,0-9.61-4.3-9.61-9.61c0-5.31,4.3-9.61,9.61-9.61
			C303.95,129.08,308.24,133.37,308.24,138.67z"/>
		<path class="st0" d="M177.74,359.56l-43.79-43.79c-4.58-4.58-11.98-4.58-16.54,0L44.88,388.3c-9.82-27.9-15.22-57.85-15.22-89.07
			c0-148.32,120.67-268.99,268.99-268.99s268.97,120.67,268.97,268.99c0,31.21-5.4,61.18-15.22,89.07l-72.51-72.51
			c-4.58-4.58-11.98-4.58-16.54,0l-43.79,43.79c-1.77,1.77-1.7,4.65,0.14,6.33l98.92,90.1c7.65,6.96,19.76,5.35,25.27-3.4
			c29.11-46.38,45.45-101.57,44.02-160.58C584.19,140.16,461.83,15.97,310.03,10.11C145.3,3.73,9.29,135.88,9.29,299.21
			c0,56.31,16.19,108.9,44.12,153.41c5.49,8.75,17.61,10.33,25.25,3.38l98.94-90.1C179.44,364.2,179.49,361.31,177.74,359.56z"/>
		<g>
			<path class="st0" d="M186,454.57c18.94-28.08,56.34-35.13,87.61-37.3c19.38-1.35,39.67-1.03,58.68-5.59
				c15.87-3.79,27.79-14.66,26.18-28.95c-1.84-16.2-22.38-27.27-35.05-33.69c-13.91-7.03-27.67-13.35-38.16-25.36
				c-8.26-9.47-10.1-22.66-5.59-34.14c1.46-3.7,4.84-8.87,8.4-13.05c3.44-4.03,4.12-5.7,1.12-3.56c-1.44,1.03-3.12,2.44-5.05,4.33
				c-4.47,4.38-157.27,157.25-197.79,197.79c-5.58,5.58-5.84,14.57-0.51,20.39c46.31,50.47,110.36,84.4,182.25,91.96
				c-83.82-30.62-102.67-87.89-88.31-121.11C181.54,462.23,183.51,458.25,186,454.57z"/>
			<path class="st0" d="M291.18,313.4c8.21,14.82,31.83,22.11,49.4,29.58c14.89,6.33,31.99,16.15,39.49,31.34
				c9.05,18.29,0.37,35.77-14.63,46.35c-19.18,13.54-45.51,15.59-68.16,18.19c-22.95,2.61-47.54,3.68-65.88,22.04
				c-18.34,18.34-11.52,41.18,1.54,56.64c15.08,17.87,38.83,28.88,61.06,34.34c101.45,24.9,174.28-16.31,198.9-38.32
				c0.7-0.63,1.44-1.19,2.19-1.72c5.66-5.26,11.12-10.73,16.34-16.43c5.33-5.8,5.03-14.82-0.54-20.39L310.05,274.19l-0.05-0.05
				c-2.88-2.88-7.54-3.16-10.59-0.46C289.29,282.63,284.73,301.76,291.18,313.4z"/>
			<g>
				<path class="st0" d="M304.25,263.18V144.49c0-3.54-2.51-6.4-5.61-6.4c-3.09,0-5.61,2.88-5.61,6.4v118.74
					C296.67,262.32,300.53,262.37,304.25,263.18z"/>
			</g>
		</g>
	</g>
</g>
</svg>
