<?xml version="1.0" encoding="utf-8"?>
<!-- Generator: Adobe Illustrator 28.1.0, SVG Export Plug-In . SVG Version: 6.00 Build 0)  -->
<svg version="1.1" id="Layer_1" xmlns="http://www.w3.org/2000/svg" xmlns:xlink="http://www.w3.org/1999/xlink" x="0px" y="0px"
	 viewBox="0 0 600 600" style="enable-background:new 0 0 600 600;" xml:space="preserve">
<style type="text/css">
	.st0{fill:#1F3E1C;}
</style>
<g id="bg-white">
</g>
<g id="logo">
	<g>
		<g>
			<path class="st0" d="M370.54,223.94c0.89-1.49,0.32-3.3-1.78-3.3H350.8c0,0,0.08,2.99-0.49,12.12
				c-0.57,9.13-1.43,13.62-1.43,13.62c-0.56,3.62-2.11,5.9-5.8,7.27c-1.56,0.58-7.51,1.83-12.84,2.89h34.69
				c2.5,0,2.88-1.99,2.15-3.47l-6.46-13.2c-0.42-0.85-0.36-1.88,0.15-2.73L370.54,223.94z"/>
		</g>
		<path class="st0" d="M340.98,249.32h-39.37v-35.84h42.47c1.19,0,2.1,0.94,2.04,2.13c0,0-0.06,6.2-0.83,16.7
			s-1.39,14.27-1.39,14.27C343.49,248.4,342.17,249.32,340.98,249.32z"/>
		<path class="st0" d="M305.48,208.78c0,3.03-2.45,5.48-5.48,5.48s-5.48-2.45-5.48-5.48s2.45-5.48,5.48-5.48
			C303.03,203.31,305.48,205.76,305.48,208.78z"/>
		<path class="st0" d="M231.06,334.74l-24.97-24.97c-2.61-2.61-6.83-2.61-9.43,0l-41.36,41.36c-5.6-15.91-8.68-32.99-8.68-50.79
			c0-84.58,68.81-153.39,153.39-153.39s153.38,68.81,153.38,153.39c0,17.8-3.08,34.89-8.68,50.79l-41.35-41.35
			c-2.61-2.61-6.83-2.61-9.43,0l-24.97,24.97c-1.01,1.01-0.97,2.65,0.08,3.61l56.41,51.38c4.36,3.97,11.27,3.05,14.41-1.94
			c16.6-26.45,25.92-57.92,25.1-91.57c-2.12-86.6-71.9-157.42-158.46-160.76C212.56,131.83,135,207.19,135,300.33
			c0,32.11,9.23,62.1,25.16,87.48c3.13,4.99,10.04,5.89,14.4,1.93l56.42-51.38C232.03,337.39,232.06,335.74,231.06,334.74z"/>
		<g>
			<path class="st0" d="M235.77,388.92c10.8-16.01,32.13-20.03,49.96-21.27c11.05-0.77,22.62-0.59,33.46-3.19
				c9.05-2.16,15.85-8.36,14.93-16.51c-1.05-9.24-12.76-15.55-19.99-19.21c-7.93-4.01-15.78-7.61-21.76-14.46
				c-4.71-5.4-5.76-12.92-3.19-19.47c0.83-2.11,2.76-5.06,4.79-7.44c1.96-2.3,2.35-3.25,0.64-2.03c-0.82,0.59-1.78,1.39-2.88,2.47
				c-2.55,2.5-89.68,89.67-112.79,112.79c-3.18,3.18-3.33,8.31-0.29,11.63c26.41,28.78,62.93,48.13,103.93,52.44
				c-47.8-17.46-58.55-50.12-50.36-69.06C233.23,393.29,234.35,391.02,235.77,388.92z"/>
			<path class="st0" d="M295.75,308.42c4.68,8.45,18.15,12.61,28.17,16.87c8.49,3.61,18.24,9.21,22.52,17.87
				c5.16,10.43,0.21,20.4-8.34,26.43c-10.94,7.72-25.95,8.89-38.87,10.37c-13.09,1.49-27.11,2.1-37.57,12.57
				c-10.46,10.46-6.57,23.48,0.88,32.3c8.6,10.19,22.14,16.47,34.82,19.58c57.85,14.2,99.38-9.3,113.42-21.85
				c0.4-0.36,0.82-0.68,1.25-0.98c3.23-3,6.34-6.12,9.32-9.37c3.04-3.31,2.87-8.45-0.31-11.63L306.51,286.06l-0.03-0.03
				c-1.64-1.64-4.3-1.8-6.04-0.26C294.67,290.87,292.07,301.78,295.75,308.42z"/>
			<g>
				<path class="st0" d="M303.2,279.78V212.1c0-2.02-1.43-3.65-3.2-3.65c-1.76,0-3.2,1.64-3.2,3.65v67.71
					C298.88,279.29,301.08,279.32,303.2,279.78z"/>
			</g>
		</g>
	</g>
</g>
</svg>
