<?xml version="1.0" encoding="utf-8"?>
<!-- Generator: Adobe Illustrator 28.1.0, SVG Export Plug-In . SVG Version: 6.00 Build 0)  -->
<svg version="1.1" id="ëÎÓÈ_1" xmlns="http://www.w3.org/2000/svg" xmlns:xlink="http://www.w3.org/1999/xlink" x="0px" y="0px"
	 viewBox="0 0 493.29 506.81" style="enable-background:new 0 0 493.29 506.81;" xml:space="preserve">
<style type="text/css">
	.st0{fill:#1F3E1C;}
</style>
<path class="st0" d="M394.02,191.91c-8.31-19.61-20.21-37.22-35.35-52.34c-15.15-15.12-32.79-26.99-52.44-35.28
	c-20.35-8.59-41.96-12.95-64.23-12.95c-22.27,0-43.88,4.36-64.23,12.95c-19.65,8.3-37.29,20.17-52.44,35.28
	c-15.15,15.12-27.04,32.72-35.35,52.34c-8.61,20.31-12.97,41.87-12.97,64.1c0,22.22,4.37,43.79,12.97,64.1
	c3.76,8.86,8.24,17.3,13.42,25.29l-24.5,73.38l73.54-24.47c8.01,5.17,16.47,9.66,25.34,13.4c20.35,8.59,41.96,12.95,64.23,12.95
	c22.27,0,43.88-4.36,64.23-12.95c19.65-8.3,37.29-20.17,52.44-35.28s27.04-32.72,35.35-52.34C402.64,299.79,407,278.23,407,256
	C406.99,233.79,402.62,212.22,394.02,191.91z M238.89,351.81c-11.62,0-20.58-9.16-20.58-21.43c0-12.48,8.97-21.64,20.58-21.64
	s20.58,9.16,20.58,21.64C259.48,342.64,250.51,351.81,238.89,351.81z M252.62,289.08h-27.99c-5.76-40.31,36.41-55.99,36.41-80.95
	c0-13.03-8.3-21.98-22.57-21.98c-11.18,0-20.36,5.63-28.43,14.24l-17.81-16.23c12.34-13.92,29.32-23.97,50.13-23.97
	c28.88,0,49.46,15.79,49.46,45.72C291.79,241.05,248.74,253.52,252.62,289.08z"/>
</svg>
