<?xml version="1.0" encoding="utf-8"?>
<!-- Generator: Adobe Illustrator 28.1.0, SVG Export Plug-In . SVG Version: 6.00 Build 0)  -->
<svg version="1.1" id="Layer_1" xmlns="http://www.w3.org/2000/svg" xmlns:xlink="http://www.w3.org/1999/xlink" x="0px" y="0px"
	 viewBox="0 0 429 430" style="enable-background:new 0 0 429 430;" xml:space="preserve">
<style type="text/css">
	.st0{fill:#1F3E1C;}
</style>
<g id="XMLID_15_">
	<g id="XMLID_1_">
		<g id="XMLID_2_">
			<rect id="XMLID_4_" x="192.34" y="164.74" class="st0" width="11.84" height="11.84"/>
			<polygon id="XMLID_5_" class="st0" points="192.34,141.05 180.5,141.05 180.5,152.9 192.34,152.9 204.19,152.9 204.19,141.05 
				204.19,129.21 192.34,129.21 			"/>
			<polygon id="XMLID_7_" class="st0" points="216.03,117.37 216.03,105.53 216.03,93.68 204.19,93.68 192.34,93.68 192.34,105.53 
				204.19,105.53 204.19,117.37 204.19,129.21 216.03,129.21 227.87,129.21 227.87,117.37 			"/>
			<polygon id="XMLID_8_" class="st0" points="192.34,105.53 180.5,105.53 180.5,117.37 180.5,129.21 192.34,129.21 192.34,117.37 
							"/>
			<rect id="XMLID_9_" x="97.61" y="188.42" class="st0" width="11.84" height="11.84"/>
			<path id="XMLID_17_" class="st0" d="M144.97,259.48h-11.84h-11.84h-11.84H97.6v11.84v11.84v11.84v11.84v11.84v11.84h11.84h11.84
				h11.84h11.84h11.84h11.84V318.7v-11.84v-11.84v-11.84v-11.84v-11.84h-11.84H144.97z M156.82,283.17v11.84v11.84v11.84h-11.84
				h-11.84h-11.84h-11.84v-11.84v-11.84v-11.84v-11.84h11.84h11.84h11.84h11.84V283.17z"/>
			<polygon id="XMLID_19_" class="st0" points="144.97,141.05 144.97,129.21 144.97,117.37 133.13,117.37 121.29,117.37 
				121.29,129.21 121.29,141.05 133.13,141.05 			"/>
			<path id="XMLID_22_" class="st0" d="M121.29,164.74h11.84h11.84h11.84h11.84V152.9v-11.84v-11.84v-11.84v-11.84V93.68h-11.84
				h-11.84h-11.84h-11.84h-11.84H97.6v11.84v11.84v11.84v11.84v11.84v11.84h11.84H121.29z M109.44,141.05v-11.84v-11.84v-11.84
				h11.84h11.84h11.84h11.84v11.84v11.84v11.84v11.84h-11.84h-11.84h-11.84h-11.84V141.05z"/>
			<polygon id="XMLID_23_" class="st0" points="251.56,105.53 251.56,93.68 239.71,93.68 239.71,105.53 239.71,117.37 
				251.56,117.37 			"/>
			<polygon id="XMLID_24_" class="st0" points="121.29,283.17 121.29,295.01 121.29,306.85 133.13,306.85 144.97,306.85 
				144.97,295.01 144.97,283.17 133.13,283.17 			"/>
			<path id="XMLID_27_" class="st0" d="M322.61,93.68h-11.84h-11.84h-11.84h-11.84h-11.84v11.84v11.84v11.84v11.84v11.84v11.84
				h11.84h11.84h11.84h11.84h11.84h11.84V152.9v-11.84v-11.84v-11.84v-11.84V93.68C334.46,93.68,322.61,93.68,322.61,93.68z
				 M322.61,117.37v11.84v11.84v11.84h-11.84h-11.84h-11.84h-11.84v-11.84v-11.84v-11.84v-11.84h11.84h11.84h11.84h11.84V117.37z"/>
			<polygon id="XMLID_28_" class="st0" points="239.71,152.9 239.71,141.05 251.56,141.05 251.56,129.21 239.71,129.21 
				227.87,129.21 227.87,141.05 216.03,141.05 216.03,152.9 227.87,152.9 227.87,164.74 239.71,164.74 			"/>
			<rect id="XMLID_29_" x="180.5" y="271.32" class="st0" width="11.84" height="11.84"/>
			<rect id="XMLID_30_" x="298.92" y="176.58" class="st0" width="11.84" height="11.84"/>
			<rect id="XMLID_31_" x="156.82" y="223.95" class="st0" width="11.84" height="11.84"/>
			<polygon id="XMLID_32_" class="st0" points="227.87,176.58 227.87,188.42 239.71,188.42 251.56,188.42 263.4,188.42 
				263.4,176.58 251.56,176.58 251.56,164.74 239.71,164.74 239.71,176.58 			"/>
			<rect id="XMLID_33_" x="180.5" y="247.63" class="st0" width="11.84" height="11.84"/>
			<polygon id="XMLID_34_" class="st0" points="144.97,212.11 144.97,200.26 156.82,200.26 168.66,200.26 168.66,212.11 
				168.66,223.95 180.5,223.95 180.5,212.11 192.34,212.11 192.34,200.26 180.5,200.26 180.5,188.42 168.66,188.42 168.66,176.58 
				156.82,176.58 156.82,188.42 144.97,188.42 144.97,176.58 133.13,176.58 121.29,176.58 109.44,176.58 109.44,188.42 
				121.29,188.42 133.13,188.42 133.13,200.26 133.13,212.11 121.29,212.11 121.29,200.26 109.44,200.26 109.44,212.11 
				97.61,212.11 97.61,223.95 109.44,223.95 121.29,223.95 133.13,223.95 133.13,235.8 121.29,235.8 109.44,235.8 109.44,247.63 
				121.29,247.63 133.13,247.63 144.97,247.63 144.97,235.8 144.97,223.95 156.82,223.95 156.82,212.11 			"/>
			<rect id="XMLID_35_" x="168.66" y="235.8" class="st0" width="11.84" height="11.84"/>
			<rect id="XMLID_36_" x="275.24" y="176.58" class="st0" width="11.84" height="11.84"/>
			<rect id="XMLID_37_" x="180.5" y="295.01" class="st0" width="11.84" height="11.84"/>
			<rect id="XMLID_39_" x="204.19" y="176.58" class="st0" width="11.84" height="11.84"/>
			<polygon id="XMLID_41_" class="st0" points="287.08,117.37 287.08,129.21 287.08,141.05 298.92,141.05 310.77,141.05 
				310.77,129.21 310.77,117.37 298.92,117.37 			"/>
			<rect id="XMLID_43_" x="216.03" y="164.74" class="st0" width="11.84" height="11.84"/>
			<rect id="XMLID_66_" x="180.5" y="176.58" class="st0" width="11.84" height="11.84"/>
			<rect id="XMLID_67_" x="180.5" y="223.95" class="st0" width="11.84" height="11.84"/>
		</g>
		<path id="XMLID_12_" class="st0" d="M333.24,317.4l-40.21-40.21c5.86-8.33,9.2-18.56,8.87-29.57c-0.77-25.24-21.1-46-46.32-47.28
			c-28.93-1.46-52.79,22.39-51.32,51.33c1.28,25.22,22.04,45.54,47.28,46.32c11.02,0.34,21.25-3,29.57-8.87l40.21,40.21
			c1.62,1.62,4.23,1.62,5.85,0l6.08-6.08C334.86,321.63,334.86,319.01,333.24,317.4z M218.35,249.13c0-19.13,15.57-34.7,34.7-34.7
			c19.13,0,34.7,15.57,34.7,34.7s-15.57,34.7-34.7,34.7C233.92,283.84,218.35,268.27,218.35,249.13z"/>
	</g>
	<g id="XMLID_6_">
		<g id="XMLID_45_">
			<path id="XMLID_50_" class="st0" d="M144.54,377.11h-44.28c-26.99,0-48.95-21.96-48.95-48.95v-44.28h15.04v44.28
				c0,18.7,15.21,33.91,33.91,33.91h44.28L144.54,377.11L144.54,377.11z"/>
		</g>
		<g id="XMLID_40_">
			<path id="XMLID_49_" class="st0" d="M66.35,140.34H51.31V96.06c0-26.99,21.96-48.95,48.95-48.95h44.28v15.04h-44.28
				c-18.7,0-33.91,15.21-33.91,33.91L66.35,140.34L66.35,140.34z"/>
		</g>
		<g id="XMLID_38_">
			<path id="XMLID_48_" class="st0" d="M332.34,377.11h-44.28v-15.04h44.28c18.7,0,33.91-15.21,33.91-33.91v-44.28h15.04v44.28
				C381.3,355.14,359.34,377.11,332.34,377.11z"/>
		</g>
		<g id="XMLID_18_">
			<path id="XMLID_47_" class="st0" d="M381.3,140.34h-15.04V96.06c0-18.7-15.21-33.91-33.91-33.91h-44.28V47.11h44.28
				c26.99,0,48.95,21.96,48.95,48.95L381.3,140.34L381.3,140.34z"/>
		</g>
	</g>
</g>
</svg>
