<?xml version="1.0" encoding="utf-8"?>
<!-- Generator: Adobe Illustrator 28.1.0, SVG Export Plug-In . SVG Version: 6.00 Build 0)  -->
<svg version="1.1" id="Layer_1" xmlns="http://www.w3.org/2000/svg" xmlns:xlink="http://www.w3.org/1999/xlink" x="0px" y="0px"
	 viewBox="0 0 420.77 451.05" style="enable-background:new 0 0 420.77 451.05;" xml:space="preserve">
<style type="text/css">
	.st0{fill:#1F3E1C;}
</style>
<g>
	<g>
		<g>
			<ellipse class="st0" cx="323.72" cy="118.96" rx="51.04" ry="58.44"/>
			<path class="st0" d="M353.74,191.15h-60.05c-17.82,0-33.42,11.28-41.72,27.89c30.15,3.63,53.73,32.9,53.73,68.36v47.13
				c5.72,0.64,11.69,0.99,18.02,0.99c31.39,0,54.4-8.19,78.07-22.04v-67.33C401.78,215.9,380.16,191.15,353.74,191.15z"/>
			<ellipse class="st0" cx="95.52" cy="118.96" rx="51.04" ry="58.44"/>
			<path class="st0" d="M167.26,219.04c-8.29-16.61-23.9-27.89-41.71-27.89H65.49c-26.42,0-48.04,24.75-48.04,55v67.33
				c23.67,13.85,46.68,22.04,78.07,22.04c6.32,0,12.29-0.35,18.02-0.99V287.4C113.54,251.93,137.11,222.67,167.26,219.04z"/>
			<ellipse class="st0" cx="209.62" cy="156.77" rx="54.05" ry="61.88"/>
			<path class="st0" d="M247.22,232.48c-0.53-0.01-1.04-0.09-1.57-0.09h-36.03h-36.03c-0.53,0-1.04,0.07-1.57,0.09
				c-25.69,0.97-46.47,25.27-46.47,54.91v81.08c23.67,13.85,52.69,22.04,84.07,22.04s60.4-8.19,84.07-22.04V287.4
				C293.69,257.76,272.91,233.46,247.22,232.48z"/>
		</g>
	</g>
</g>
</svg>
