<?xml version="1.0" encoding="utf-8"?>
<!-- Generator: Adobe Illustrator 28.1.0, SVG Export Plug-In . SVG Version: 6.00 Build 0)  -->
<svg version="1.1" id="Layer_1" xmlns="http://www.w3.org/2000/svg" xmlns:xlink="http://www.w3.org/1999/xlink" x="0px" y="0px"
	 viewBox="0 0 594.65 543.97" style="enable-background:new 0 0 594.65 543.97;" xml:space="preserve">
<style type="text/css">
	.st0{fill:#1F3E1C;}
</style>
<g id="Layer_3">
</g>
<g id="Layer_2_00000060021953126989397990000016657234343486939285_">
	<g>
		<path class="st0" d="M264.51,363.39c0,0-21.96,119.26-34.37,133.31c-14.35,16.25,119.94,14.54,91.83-7.3
			C301.01,473.12,289.11,336.21,264.51,363.39z"/>
		<path class="st0" d="M445.75,430.73c0,24.3-73.87,7.68-165,7.68s-165,16.61-165-7.68c0-24.3,73.87-80.29,165-80.29
			S445.75,406.43,445.75,430.73z"/>
		<path class="st0" d="M433.16,370.47c0,22.44-68.24,7.09-152.41,7.09s-152.41,15.34-152.41-7.09c0-22.44,68.24-74.17,152.41-74.17
			S433.16,348.03,433.16,370.47z"/>
		<path class="st0" d="M421.75,311.3c0,20.76-63.13,6.56-140.99,6.56s-140.99,14.19-140.99-6.56c0-20.76,63.13-68.61,140.99-68.61
			C358.62,242.7,421.75,290.54,421.75,311.3z"/>
		<path class="st0" d="M403.27,269.66c0,18.04-54.84,5.7-122.51,5.7c-67.66,0-122.51,12.33-122.51-5.7
			c0-18.04,54.84-59.61,122.51-59.61C348.42,210.04,403.27,251.62,403.27,269.66z"/>
		<path class="st0" d="M391.17,217.01c0,16.25-49.42,5.14-110.4,5.14s-110.4,11.11-110.4-5.14c0-16.25,49.42-81.86,110.4-81.86
			C341.73,135.15,391.17,200.75,391.17,217.01z"/>
	</g>
</g>
<g id="Layer_1_00000114041796442256660410000000872507793509842058_">
</g>
</svg>
